<?xml version="1.0" standalone="no"?>
<!DOCTYPE svg PUBLIC "-//W3C//DTD SVG 1.1//EN" "http://www.w3.org/Graphics/SVG/1.1/DTD/svg11.dtd">
<svg width="600px" height="600px" version="1.1" xmlns="http://www.w3.org/2000/svg" xmlns:xlink="http://www.w3.org/1999/xlink" xml:space="preserve" style="fill-rule:evenodd;clip-rule:evenodd;stroke-linecap:round;stroke-linejoin:round;stroke-miterlimit:1.41421;">
    <g>
        <g id="duck">
            <g>
                <path d="M441.709,94.9627C451.324,94.9627 459.119,102.757 459.119,112.372C459.119,121.987 451.324,129.782 441.709,129.782C432.094,129.782 424.3,121.987 424.3,112.372C424.3,102.757 432.094,94.9627 441.709,94.9627ZM397.808,24.6626C397.808,24.6626 369.736,26.9163 356.818,35.3856C343.9,43.855 330.469,54.4032 324.639,71.0862C318.808,87.7692 316.296,101.134 318.075,118.938C321.569,153.916 339.794,174.391 348.606,207.502C357.418,240.612 359.054,262.338 355.436,287.92C344.908,362.369 263.243,408.017 197.879,427.292C132.516,446.567 56.7372,446.531 51.8634,447.163C45.2221,448.025 39.1767,454.084 42.6583,459.067C43.5661,460.366 51.8634,472.242 51.8634,472.242C51.8634,472.242 29.7525,470.751 25.0833,472.242C20.4142,473.733 7.28734,476.913 17.1387,491.97C26.9901,507.027 67.9448,529.891 95.4,543.391C128.9,559.864 177.336,577.399 248.996,590.146C320.656,602.894 373.309,593.605 393.757,590.146C414.205,586.687 518.551,566.083 541.959,472.242C548.201,447.22 545.027,426.658 541.959,409.07C538.891,391.481 520.935,353.579 513.678,342.456C505.784,330.355 491.344,312.232 483.29,299.924C475.237,287.616 455.897,264.441 448.018,230.682C444.206,214.353 442.795,197.58 456.381,187.905C460.91,184.68 467.105,182.244 475.433,180.875C522.264,173.18 538.551,165.103 567.16,142.794C583.306,130.203 589.759,117.506 590.614,112.372C591.47,107.239 590.945,102.889 586.166,99.2822C581.386,95.6759 579.663,95.7461 567.16,99.2822C516.598,113.583 508.117,87.6271 475.433,54.0038C464.234,42.4839 461.569,40.7216 445.569,32.4026C429.57,24.0837 397.808,24.6626 397.808,24.6626Z" style="fill:rgb(241,196,15);"/>
            </g>
            <g>
                <path d="M462.948,40.1573C431.697,33.6529 410.741,40.5933 400.081,60.9784C374.757,46.2644 350.765,49.5341 327.378,60.9784C327.378,60.9784 350.944,29.3735 383.761,22.961C427.464,14.4212 462.948,40.1573 462.948,40.1573Z" style="fill:rgb(192,57,43);stroke-width:2.67px;stroke:rgb(192,57,43);"/>
            </g>
            <g>
                <path d="M310.286,31.9238L460.407,9.34594" style="fill:rgb(192,57,43);stroke-width:2px;stroke:rgb(192,57,43);"/>
            </g>
        </g>
    </g>
</svg>